<?xml version="1.0" standalone="no"?><!DOCTYPE svg PUBLIC "-//W3C//DTD SVG 1.1//EN" "http://www.w3.org/Graphics/SVG/1.1/DTD/svg11.dtd"><svg t="1555942615944" class="icon" style="" viewBox="0 0 1024 1024" version="1.1" xmlns="http://www.w3.org/2000/svg" p-id="6763" xmlns:xlink="http://www.w3.org/1999/xlink" width="16" height="16"><defs><style type="text/css"></style></defs><path d="M85.333333 384h128v512H85.333333a42.666667 42.666667 0 0 1-42.666666-42.666667V426.666667a42.666667 42.666667 0 0 1 42.666666-42.666667z m225.834667-55.168l273.066667-273.066667a21.333333 21.333333 0 0 1 27.904-2.005333l36.394666 27.306667a64 64 0 0 1 23.594667 66.986666L622.933333 341.333333H896a85.333333 85.333333 0 0 1 85.333333 85.333334v89.770666a85.333333 85.333333 0 0 1-6.4 32.512l-132.053333 320.64a42.666667 42.666667 0 0 1-39.466667 26.410667H341.333333a42.666667 42.666667 0 0 1-42.666666-42.666667V358.997333a42.666667 42.666667 0 0 1 12.501333-30.165333z" p-id="6764"></path></svg>