<?xml version="1.0" standalone="no"?><!DOCTYPE svg PUBLIC "-//W3C//DTD SVG 1.1//EN" "http://www.w3.org/Graphics/SVG/1.1/DTD/svg11.dtd"><svg t="1559832537005" class="icon" style="" viewBox="0 0 1024 1024" version="1.1" xmlns="http://www.w3.org/2000/svg" p-id="1995" xmlns:xlink="http://www.w3.org/1999/xlink" width="64" height="64"><defs><style type="text/css"></style></defs><path d="M0.00006 576v160.68a23.36 23.36 0 0 0 37.64 18.45L318.00006 538.52a23.39 23.39 0 0 0 0-37L37.64006 284.91A23.32 23.32 0 0 0 0.00006 303.37V448" p-id="1996" fill="#333333"></path><path d="M0.00006 0m32 0l960 0q32 0 32 32l0 64q0 32-32 32l-960 0q-32 0-32-32l0-64q0-32 32-32Z" p-id="1997" fill="#333333"></path><path d="M512.00006 320m32 0l448 0q32 0 32 32l0 64q0 32-32 32l-448 0q-32 0-32-32l0-64q0-32 32-32Z" p-id="1998" fill="#333333"></path><path d="M512.00006 576m32 0l448 0q32 0 32 32l0 64q0 32-32 32l-448 0q-32 0-32-32l0-64q0-32 32-32Z" p-id="1999" fill="#333333"></path><path d="M0.00006 896m32 0l960 0q32 0 32 32l0 64q0 32-32 32l-960 0q-32 0-32-32l0-64q0-32 32-32Z" p-id="2000" fill="#333333"></path></svg>